<svg xmlns="http://www.w3.org/2000/svg" width="34.588" height="34.533" viewBox="0 0 34.588 34.533"><path d="M1473.379,76.1a3.452,3.452,0,1,0,3.453,3.447,3.469,3.469,0,0,0-3.453-3.447ZM1463,48.467v3.458h3.463l6.221,13.118-2.423,4.148a6.221,6.221,0,0,0-.346,1.718,3.471,3.471,0,0,0,3.463,3.458h20.747V70.909H1474.07a.365.365,0,0,1-.346-.345V70.4l1.554-2.933h12.8a3.167,3.167,0,0,0,2.938-1.729l6.224-11.221a.959.959,0,0,0,.346-.87,1.631,1.631,0,0,0-1.732-1.718h-25.6l-1.552-3.458ZM1490.673,76.1a3.452,3.452,0,1,0,3.452,3.447,3.469,3.469,0,0,0-3.452-3.447Zm0,0" transform="translate(-1463 -48.467)" fill="#8e36b7"/></svg>