<svg xmlns="http://www.w3.org/2000/svg" width="17.009" height="21.004" viewBox="0 0 17.009 21.004"><path d="M418.654,766.131h-4.978a2.829,2.829,0,0,0-.642-1.678,1.5,1.5,0,0,0-1.114-.459h-3.544a1.492,1.492,0,0,0-1.112.459,2.842,2.842,0,0,0-.644,1.678h-4.267a.355.355,0,0,0,0,.711h.723l.678,16.385A1.724,1.724,0,0,0,405.493,785h10.018a1.722,1.722,0,0,0,1.739-1.764l.68-16.392h.723a.355.355,0,0,0,0-.711Zm-11.341,15.664a.355.355,0,1,1-.71,0V770.047a.355.355,0,1,1,.71,0Zm3.544,0a.355.355,0,1,1-.71,0V770.047a.355.355,0,1,1,.71,0Zm3.544,0a.355.355,0,1,1-.71,0V770.047a.355.355,0,1,1,.71,0Zm-6.629-16.846a.8.8,0,0,1,.6-.242h3.544a.8.8,0,0,1,.606.242,2.1,2.1,0,0,1,.439,1.182h-5.632a2.1,2.1,0,0,1,.439-1.182Zm0,0" transform="translate(-401.998 -763.995)" fill="#cfcfcf"/></svg>