<svg xmlns="http://www.w3.org/2000/svg" xmlns:xlink="http://www.w3.org/1999/xlink" width="117.452" height="72.813" viewBox="0 0 117.452 72.813"><defs><clipPath id="a"><path d="M0-266.055H117.452v72.813H0Z" transform="translate(0 266.055)" fill="#8e36b7"/></clipPath></defs><g transform="translate(0 266.055)"><g transform="translate(0 -266.055)"><g clip-path="url(#a)"><path d="M112.02-234.8H17.3l22.6-22.6a5.064,5.064,0,0,0,0-7.166,5.066,5.066,0,0,0-7.166,0L1.486-233.315a5.066,5.066,0,0,0,0,7.166l31.252,31.255a5.048,5.048,0,0,0,3.583,1.485,5.049,5.049,0,0,0,3.583-1.485,5.065,5.065,0,0,0,0-7.168l-22.6-22.6H112.02a5.069,5.069,0,0,0,5.068-5.068A5.069,5.069,0,0,0,112.02-234.8Z" transform="translate(-0.001 266.054)" fill="#8e36b7"/></g></g></g></svg>